{
  "asset": {
    "version": "2.0",
    "generator": "THREE.GLTFExporter"
  },
  "scenes": [
    {
      "name": "Scene",
      "nodes": [
        8
      ]
    }
  ],
  "scene": 0,
  "nodes": [
    {
      "name": "imagetostl_mesh0",
      "extras": {
        "name": "imagetostl_mesh0"
      },
      "mesh": 0
    },
    {
      "name": "imagetostl_mesh1",
      "extras": {
        "name": "imagetostl_mesh1"
      },
      "mesh": 1
    },
    {
      "name": "imagetostl_mesh2",
      "extras": {
        "name": "imagetostl_mesh2"
      },
      "mesh": 2
    },
    {
      "name": "imagetostl_mesh3",
      "extras": {
        "name": "imagetostl_mesh3"
      },
      "mesh": 3
    },
    {
      "name": "imagetostl_mesh4",
      "extras": {
        "name": "imagetostl_mesh4"
      },
      "mesh": 4
    },
    {
      "name": "imagetostl_mesh5",
      "extras": {
        "name": "imagetostl_mesh5"
      },
      "mesh": 5
    },
    {
      "name": "imagetostl_mesh6",
      "extras": {
        "name": "imagetostl_mesh6"
      },
      "mesh": 6
    },
    {
      "name": "imagetostl_mesh7",
      "extras": {
        "name": "imagetostl_mesh7"
      },
      "mesh": 7
    },
    {
      "matrix": [
        0.1,
        0,
        0,
        0,
        0,
        2.2204460492503132e-17,
        -0.1,
        0,
        0,
        0.1,
        2.2204460492503132e-17,
        0,
        0,
        0,
        0,
        1
      ],
      "name": "gdsc-logo.glb",
      "children": [
        0,
        1,
        2,
        3,
        4,
        5,
        6,
        7
      ]
    }
  ],
  "bufferViews": [
    {
      "buffer": 0,
      "byteOffset": 0,
      "byteLength": 40728,
      "target": 34962,
      "byteStride": 12
    },
    {
      "buffer": 0,
      "byteOffset": 40728,
      "byteLength": 40728,
      "target": 34962,
      "byteStride": 12
    },
    {
      "buffer": 0,
      "byteOffset": 81456,
      "byteLength": 8016,
      "target": 34963
    },
    {
      "buffer": 0,
      "byteOffset": 89472,
      "byteLength": 20856,
      "target": 34962,
      "byteStride": 12
    },
    {
      "buffer": 0,
      "byteOffset": 110328,
      "byteLength": 20856,
      "target": 34962,
      "byteStride": 12
    },
    {
      "buffer": 0,
      "byteOffset": 131184,
      "byteLength": 7992,
      "target": 34963
    },
    {
      "buffer": 0,
      "byteOffset": 139176,
      "byteLength": 39504,
      "target": 34962,
      "byteStride": 12
    },
    {
      "buffer": 0,
      "byteOffset": 178680,
      "byteLength": 39504,
      "target": 34962,
      "byteStride": 12
    },
    {
      "buffer": 0,
      "byteOffset": 218184,
      "byteLength": 8016,
      "target": 34963
    },
    {
      "buffer": 0,
      "byteOffset": 226200,
      "byteLength": 20484,
      "target": 34962,
      "byteStride": 12
    },
    {
      "buffer": 0,
      "byteOffset": 246684,
      "byteLength": 20484,
      "target": 34962,
      "byteStride": 12
    },
    {
      "buffer": 0,
      "byteOffset": 267168,
      "byteLength": 7992,
      "target": 34963
    },
    {
      "buffer": 0,
      "byteOffset": 275160,
      "byteLength": 30048,
      "target": 34962,
      "byteStride": 12
    },
    {
      "buffer": 0,
      "byteOffset": 305208,
      "byteLength": 30048,
      "target": 34962,
      "byteStride": 12
    },
    {
      "buffer": 0,
      "byteOffset": 335256,
      "byteLength": 5988,
      "target": 34963
    },
    {
      "buffer": 0,
      "byteOffset": 341244,
      "byteLength": 16080,
      "target": 34962,
      "byteStride": 12
    },
    {
      "buffer": 0,
      "byteOffset": 357324,
      "byteLength": 16080,
      "target": 34962,
      "byteStride": 12
    },
    {
      "buffer": 0,
      "byteOffset": 373404,
      "byteLength": 5964,
      "target": 34963
    },
    {
      "buffer": 0,
      "byteOffset": 379368,
      "byteLength": 29040,
      "target": 34962,
      "byteStride": 12
    },
    {
      "buffer": 0,
      "byteOffset": 408408,
      "byteLength": 29040,
      "target": 34962,
      "byteStride": 12
    },
    {
      "buffer": 0,
      "byteOffset": 437448,
      "byteLength": 5976,
      "target": 34963
    },
    {
      "buffer": 0,
      "byteOffset": 443424,
      "byteLength": 15600,
      "target": 34962,
      "byteStride": 12
    },
    {
      "buffer": 0,
      "byteOffset": 459024,
      "byteLength": 15600,
      "target": 34962,
      "byteStride": 12
    },
    {
      "buffer": 0,
      "byteOffset": 474624,
      "byteLength": 5952,
      "target": 34963
    }
  ],
  "buffers": [
    {
      "byteLength": 480576,
      "uri": "data:application/octet-stream;base64,"
    }
  ],
  "accessors": [
    {
      "bufferView": 0,
      "componentType": 5126,
      "count": 3394,
      "max": [
        -5.530418395996094,
        5,
        23.28206443786621
      ],
      "min": [
        -48.09959411621094,
        -5,
        -7.643465042114258
      ],
      "type": "VEC3"
    },
    {
      "bufferView": 1,
      "componentType": 5126,
      "count": 3394,
      "max": [
        0.9999693632125854,
        0,
        0.9999997019767761
      ],
      "min": [
        -0.9999986290931702,
        0,
        -0.9999967217445374
      ],
      "type": "VEC3"
    },
    {
      "bufferView": 2,
      "componentType": 5123,
      "count": 4008,
      "max": [
        3393
      ],
      "min": [
        0
      ],
      "type": "SCALAR"
    },
    {
      "bufferView": 3,
      "componentType": 5126,
      "count": 1738,
      "max": [
        -5.530418395996094,
        5,
        23.28206443786621
      ],
      "min": [
        -48.09959411621094,
        -5,
        -7.643465042114258
      ],
      "type": "VEC3"
    },
    {
      "bufferView": 4,
      "componentType": 5126,
      "count": 1738,
      "max": [
        0.000006343921086227056,
        1,
        0
      ],
      "min": [
        -0.000006427127573260805,
        -1,
        0
      ],
      "type": "VEC3"
    },
    {
      "bufferView": 5,
      "componentType": 5123,
      "count": 3996,
      "max": [
        1737
      ],
      "min": [
        0
      ],
      "type": "SCALAR"
    },
    {
      "bufferView": 6,
      "componentType": 5126,
      "count": 3292,
      "max": [
        48.260498046875,
        5,
        7.77806282043457
      ],
      "min": [
        5.843379974365234,
        -5,
        -23.30179214477539
      ],
      "type": "VEC3"
    },
    {
      "bufferView": 7,
      "componentType": 5126,
      "count": 3292,
      "max": [
        0.9999640583992004,
        0,
        0.9999727010726929
      ],
      "min": [
        -0.9999992847442627,
        0,
        -0.9999999403953552
      ],
      "type": "VEC3"
    },
    {
      "bufferView": 8,
      "componentType": 5123,
      "count": 4008,
      "max": [
        3291
      ],
      "min": [
        0
      ],
      "type": "SCALAR"
    },
    {
      "bufferView": 9,
      "componentType": 5126,
      "count": 1707,
      "max": [
        48.260498046875,
        5,
        7.77806282043457
      ],
      "min": [
        5.843379974365234,
        -5,
        -23.30179214477539
      ],
      "type": "VEC3"
    },
    {
      "bufferView": 10,
      "componentType": 5126,
      "count": 1707,
      "max": [
        0.000005299195890984265,
        1,
        0
      ],
      "min": [
        -0.000010601980648061726,
        -1,
        0
      ],
      "type": "VEC3"
    },
    {
      "bufferView": 11,
      "componentType": 5123,
      "count": 3996,
      "max": [
        1706
      ],
      "min": [
        0
      ],
      "type": "SCALAR"
    },
    {
      "bufferView": 12,
      "componentType": 5126,
      "count": 2504,
      "max": [
        -5.560264587402344,
        5,
        -1.2348041534423828
      ],
      "min": [
        -38.98023223876953,
        -5,
        -23.342952728271484
      ],
      "type": "VEC3"
    },
    {
      "bufferView": 13,
      "componentType": 5126,
      "count": 2504,
      "max": [
        0.9999904632568359,
        0,
        0.9985093474388123
      ],
      "min": [
        -0.8648450374603271,
        0,
        -0.9999998211860657
      ],
      "type": "VEC3"
    },
    {
      "bufferView": 14,
      "componentType": 5123,
      "count": 2994,
      "max": [
        2503
      ],
      "min": [
        0
      ],
      "type": "SCALAR"
    },
    {
      "bufferView": 15,
      "componentType": 5126,
      "count": 1340,
      "max": [
        -5.560264587402344,
        5,
        -1.2348041534423828
      ],
      "min": [
        -38.98023223876953,
        -5,
        -23.342952728271484
      ],
      "type": "VEC3"
    },
    {
      "bufferView": 16,
      "componentType": 5126,
      "count": 1340,
      "max": [
        0.000008719915967958514,
        1,
        0
      ],
      "min": [
        -0.000008646181413496379,
        -1,
        0
      ],
      "type": "VEC3"
    },
    {
      "bufferView": 17,
      "componentType": 5123,
      "count": 2982,
      "max": [
        1339
      ],
      "min": [
        0
      ],
      "type": "SCALAR"
    },
    {
      "bufferView": 18,
      "componentType": 5126,
      "count": 2420,
      "max": [
        38.984458923339844,
        5,
        23.365304946899414
      ],
      "min": [
        5.920932769775391,
        -5,
        1.1704750061035156
      ],
      "type": "VEC3"
    },
    {
      "bufferView": 19,
      "componentType": 5126,
      "count": 2420,
      "max": [
        0.9533907771110535,
        0,
        0.9999985694885254
      ],
      "min": [
        -0.9999998807907104,
        0,
        -0.9516664147377014
      ],
      "type": "VEC3"
    },
    {
      "bufferView": 20,
      "componentType": 5123,
      "count": 2988,
      "max": [
        2419
      ],
      "min": [
        0
      ],
      "type": "SCALAR"
    },
    {
      "bufferView": 21,
      "componentType": 5126,
      "count": 1300,
      "max": [
        38.984458923339844,
        5,
        23.365304946899414
      ],
      "min": [
        5.920932769775391,
        -5,
        1.1704750061035156
      ],
      "type": "VEC3"
    },
    {
      "bufferView": 22,
      "componentType": 5126,
      "count": 1300,
      "max": [
        0.00016302242875099182,
        1,
        0
      ],
      "min": [
        -0.0001086395641323179,
        -1,
        0
      ],
      "type": "VEC3"
    },
    {
      "bufferView": 23,
      "componentType": 5123,
      "count": 2976,
      "max": [
        1299
      ],
      "min": [
        0
      ],
      "type": "SCALAR"
    }
  ],
  "materials": [
    {
      "pbrMetallicRoughness": {
        "metallicFactor": 0,
        "roughnessFactor": 0.9
      },
      "extensions": {
        "KHR_materials_unlit": {}
      }
    },
    {
      "pbrMetallicRoughness": {
        "metallicFactor": 0,
        "roughnessFactor": 0.9
      },
      "extensions": {
        "KHR_materials_unlit": {}
      }
    },
    {
      "pbrMetallicRoughness": {
        "metallicFactor": 0,
        "roughnessFactor": 0.9
      },
      "extensions": {
        "KHR_materials_unlit": {}
      }
    },
    {
      "pbrMetallicRoughness": {
        "metallicFactor": 0,
        "roughnessFactor": 0.9
      },
      "extensions": {
        "KHR_materials_unlit": {}
      }
    },
    {
      "pbrMetallicRoughness": {
        "metallicFactor": 0,
        "roughnessFactor": 0.9
      },
      "extensions": {
        "KHR_materials_unlit": {}
      }
    },
    {
      "pbrMetallicRoughness": {
        "metallicFactor": 0,
        "roughnessFactor": 0.9
      },
      "extensions": {
        "KHR_materials_unlit": {}
      }
    },
    {
      "pbrMetallicRoughness": {
        "metallicFactor": 0,
        "roughnessFactor": 0.9
      },
      "extensions": {
        "KHR_materials_unlit": {}
      }
    },
    {
      "pbrMetallicRoughness": {
        "metallicFactor": 0,
        "roughnessFactor": 0.9
      },
      "extensions": {
        "KHR_materials_unlit": {}
      }
    }
  ],
  "meshes": [
    {
      "primitives": [
        {
          "mode": 4,
          "attributes": {
            "POSITION": 0,
            "NORMAL": 1
          },
          "indices": 2,
          "material": 0
        }
      ]
    },
    {
      "primitives": [
        {
          "mode": 4,
          "attributes": {
            "POSITION": 3,
            "NORMAL": 4
          },
          "indices": 5,
          "material": 1
        }
      ]
    },
    {
      "primitives": [
        {
          "mode": 4,
          "attributes": {
            "POSITION": 6,
            "NORMAL": 7
          },
          "indices": 8,
          "material": 2
        }
      ]
    },
    {
      "primitives": [
        {
          "mode": 4,
          "attributes": {
            "POSITION": 9,
            "NORMAL": 10
          },
          "indices": 11,
          "material": 3
        }
      ]
    },
    {
      "primitives": [
        {
          "mode": 4,
          "attributes": {
            "POSITION": 12,
            "NORMAL": 13
          },
          "indices": 14,
          "material": 4
        }
      ]
    },
    {
      "primitives": [
        {
          "mode": 4,
          "attributes": {
            "POSITION": 15,
            "NORMAL": 16
          },
          "indices": 17,
          "material": 5
        }
      ]
    },
    {
      "primitives": [
        {
          "mode": 4,
          "attributes": {
            "POSITION": 18,
            "NORMAL": 19
          },
          "indices": 20,
          "material": 6
        }
      ]
    },
    {
      "primitives": [
        {
          "mode": 4,
          "attributes": {
            "POSITION": 21,
            "NORMAL": 22
          },
          "indices": 23,
          "material": 7
        }
      ]
    }
  ],
  "extensionsUsed": [
    "KHR_materials_unlit"
  ]
}