<svg id="visual" viewBox="0 0 900 100" width="900" height="100" xmlns="http://www.w3.org/2000/svg"
    xmlns:xlink="http://www.w3.org/1999/xlink" version="1.1">
    <rect x="0" y="0" width="900" height="100" fill="#282C34"></rect>
    <path
        d="M0 58L8.3 53.3C16.7 48.7 33.3 39.3 50 39.8C66.7 40.3 83.3 50.7 100 55C116.7 59.3 133.3 57.7 150 53C166.7 48.3 183.3 40.7 200 40.2C216.7 39.7 233.3 46.3 250 53.2C266.7 60 283.3 67 300 70C316.7 73 333.3 72 350 67.2C366.7 62.3 383.3 53.7 400 54.8C416.7 56 433.3 67 450 71C466.7 75 483.3 72 500 68C516.7 64 533.3 59 550 59.5C566.7 60 583.3 66 600 67.8C616.7 69.7 633.3 67.3 650 60.2C666.7 53 683.3 41 700 39.8C716.7 38.7 733.3 48.3 750 52.3C766.7 56.3 783.3 54.7 800 55C816.7 55.3 833.3 57.7 850 58.2C866.7 58.7 883.3 57.3 891.7 56.7L900 56L900 0L891.7 0C883.3 0 866.7 0 850 0C833.3 0 816.7 0 800 0C783.3 0 766.7 0 750 0C733.3 0 716.7 0 700 0C683.3 0 666.7 0 650 0C633.3 0 616.7 0 600 0C583.3 0 566.7 0 550 0C533.3 0 516.7 0 500 0C483.3 0 466.7 0 450 0C433.3 0 416.7 0 400 0C383.3 0 366.7 0 350 0C333.3 0 316.7 0 300 0C283.3 0 266.7 0 250 0C233.3 0 216.7 0 200 0C183.3 0 166.7 0 150 0C133.3 0 116.7 0 100 0C83.3 0 66.7 0 50 0C33.3 0 16.7 0 8.3 0L0 0Z"
        fill="#f4b400" stroke-linecap="round" stroke-linejoin="miter"></path>
</svg>