<svg id="visual" viewBox="0 0 900 100" width="900" height="100" xmlns="http://www.w3.org/2000/svg"
    xmlns:xlink="http://www.w3.org/1999/xlink" version="1.1">
    <path
        d="M0 40L8.3 44.7C16.7 49.3 33.3 58.7 50 58.2C66.7 57.7 83.3 47.3 100 43C116.7 38.7 133.3 40.3 150 45C166.7 49.7 183.3 57.3 200 57.8C216.7 58.3 233.3 51.7 250 44.8C266.7 38 283.3 31 300 28C316.7 25 333.3 26 350 30.8C366.7 35.7 383.3 44.3 400 43.2C416.7 42 433.3 31 450 27C466.7 23 483.3 26 500 30C516.7 34 533.3 39 550 38.5C566.7 38 583.3 32 600 30.2C616.7 28.3 633.3 30.7 650 37.8C666.7 45 683.3 57 700 58.2C716.7 59.3 733.3 49.7 750 45.7C766.7 41.7 783.3 43.3 800 43C816.7 42.7 833.3 40.3 850 39.8C866.7 39.3 883.3 40.7 891.7 41.3L900 42L900 101L891.7 101C883.3 101 866.7 101 850 101C833.3 101 816.7 101 800 101C783.3 101 766.7 101 750 101C733.3 101 716.7 101 700 101C683.3 101 666.7 101 650 101C633.3 101 616.7 101 600 101C583.3 101 566.7 101 550 101C533.3 101 516.7 101 500 101C483.3 101 466.7 101 450 101C433.3 101 416.7 101 400 101C383.3 101 366.7 101 350 101C333.3 101 316.7 101 300 101C283.3 101 266.7 101 250 101C233.3 101 216.7 101 200 101C183.3 101 166.7 101 150 101C133.3 101 116.7 101 100 101C83.3 101 66.7 101 50 101C33.3 101 16.7 101 8.3 101L0 101Z"
        fill="#f4b400" stroke-linecap="round" stroke-linejoin="miter"></path>
</svg>